<?xml version="1.0" encoding="UTF-8"?>
<svg width="128" height="128" viewBox="0 0 128 128" fill="none" xmlns="http://www.w3.org/2000/svg">
  <path d="M64 20C40.8 20 22 38.8 22 62c0 23.2 18.8 42 42 42s42-18.8 42-42c0-23.2-18.8-42-42-42zm0 76c-18.7 0-34-15.3-34-34s15.3-34 34-34 34 15.3 34 34-15.3 34-34 34z" fill="#0066B2"/>
  <path d="M64 36c-14.4 0-26 11.6-26 26s11.6 26 26 26 26-11.6 26-26-11.6-26-26-26zm0 44c-9.9 0-18-8.1-18-18s8.1-18 18-18 18 8.1 18 18-8.1 18-18 18z" fill="#0066B2"/>
  <g fill="#0066B2">
    <circle cx="64" cy="62" r="8"/>
    <circle cx="90" cy="62" r="6"/>
    <circle cx="38" cy="62" r="6"/>
    <circle cx="64" cy="36" r="6"/>
    <circle cx="64" cy="88" r="6"/>
  </g>
</svg>
